<?xml version="1.0" standalone="no"?>
<!DOCTYPE svg PUBLIC "-//W3C//DTD SVG 20010904//EN"
 "http://www.w3.org/TR/2001/REC-SVG-20010904/DTD/svg10.dtd">
<svg version="1.0" xmlns="http://www.w3.org/2000/svg"
 width="32.000000pt" height="38.000000pt" viewBox="0 0 302.000000 383.000000"
 preserveAspectRatio="xMidYMid meet">

<g transform="translate(0.000000,383.000000) scale(0.100000,-0.100000)"
fill="#000000" stroke="none">
<path d="M1473 3818 c-6 -7 -13 -24 -16 -38 -3 -14 -331 -855 -728 -1870 -396
-1015 -723 -1852 -726 -1861 -3 -11 3 -18 19 -20 13 -2 517 -3 1121 -1 963 2
1097 4 1097 17 0 13 -132 15 -1083 17 l-1083 3 710 1818 c390 999 713 1814
717 1810 4 -5 332 -834 729 -1843 397 -1009 723 -1836 725 -1838 2 -2 15 2 29
10 l25 13 -740 1880 c-406 1034 -737 1885 -735 1892 9 22 -45 31 -61 11z"/>
<path d="M1576 1803 c-3 -10 -62 -218 -131 -463 -69 -245 -128 -453 -131 -462
-5 -15 1 -18 40 -18 25 0 47 4 50 8 7 12 266 927 266 941 0 6 -19 11 -44 11
-34 0 -46 -4 -50 -17z"/>
<path d="M960 1521 l-305 -128 -3 -54 -3 -54 303 -129 c167 -71 306 -131 311
-133 4 -2 7 22 7 54 l0 58 -227 94 c-126 52 -234 97 -241 101 -8 4 86 48 227
106 l241 98 0 58 c0 32 -1 58 -2 58 -2 -1 -140 -59 -308 -129z"/>
<path d="M1720 1591 l0 -58 240 -98 240 -98 -37 -17 c-21 -9 -129 -54 -240
-100 l-203 -83 0 -58 0 -58 78 33 c42 18 179 77 305 131 l227 97 0 57 0 56
-198 82 c-108 45 -245 102 -304 127 l-108 45 0 -58z"/>
</g>
</svg>
